<?xml version="1.0" encoding="utf-8"?>
<!-- Generator: Adobe Illustrator 24.3.0, SVG Export Plug-In . SVG Version: 6.00 Build 0)  -->
<svg version="1.1" id="Layer_1" xmlns="http://www.w3.org/2000/svg" xmlns:xlink="http://www.w3.org/1999/xlink" x="0px" y="0px"
	 viewBox="0 0 262 40" style="enable-background:new 0 0 262 40;" xml:space="preserve">
<style type="text/css">
	.st0{fill:#004C88;}
</style>
<g>
	<g>
		<path class="st0" d="M39.4,19.9c0,10.8-8.8,19.6-19.6,19.6C9.1,39.6,0.3,30.8,0.3,20C0.3,9.3,9,0.4,19.8,0.4
			C30.6,0.4,39.4,9.2,39.4,19.9z M35.8,17.6c0,0.1,0,0.1,0,0.2c-0.8,1.5-1.7,3-2.6,4.4c-0.1,0.1-0.3,0.2-0.5,0.2c-1.3,0-2.6,0-3.9,0
			c-0.4,0-0.6,0.1-0.8,0.5c-2.4,4.1-4.8,8.3-7.1,12.4c-0.3,0.6-0.7,1.2-1,1.8c0.1,0,0.2,0,0.2,0c1.5,0,3-0.2,4.5-0.7
			c7.7-2.2,12.9-9.6,12.4-17.6c-0.3-4.4-2.1-8.2-5.3-11.2C27.9,4,23.4,2.5,18.2,2.9c-0.3,0-0.4,0.2-0.6,0.4c-2.3,4-4.7,8.1-7,12.1
			c-0.4,0.7-0.8,1.4-1.2,2.2c3.5,0,6.9,0,10.4,0c-0.9,1.5-1.7,3-2.6,4.4c-0.2,0.3-0.4,0.4-0.7,0.4c-4.1,0-8.2,0-12.2,0
			c-0.1,0-0.3,0-0.5,0C7.4,16.1,11,10,14.6,3.7c-0.3,0.1-0.4,0.1-0.6,0.2c-1.3,0.5-2.6,1.1-3.7,1.9c-6,4-9,11.6-7,18.5
			c1.9,6.8,6.5,11,13.4,12.6c0.4,0.1,0.6,0,0.8-0.3c2.5-4.4,5.1-8.8,7.6-13.2c0.2-0.3,0.3-0.5,0.5-0.9c-1.9,0-3.7,0-5.6,0
			c0.1-0.1,0.1-0.2,0.1-0.3c0.8-1.4,1.6-2.8,2.5-4.3c0.1-0.3,0.3-0.3,0.6-0.3c2.3,0,4.5,0,6.8,0C31.8,17.6,33.8,17.6,35.8,17.6z"/>
		<path class="st0" d="M68.1,19.5c0.7,0,1.5,0,2.2,0c0.1,1.2-0.7,2.9-2.1,4.9c0.5,0.7,0.9,1.4,1.5,2.2c-0.9,0-1.8,0-2.6,0
			c-0.1,0-0.2-0.1-0.3-0.2c-0.1-0.1-0.2-0.3-0.3-0.5c-1.3,0.8-2.7,1-4.1,0.9c-0.8,0-1.6-0.2-2.2-0.6c-2.1-1.2-2.3-4.1-0.5-5.8
			c0.3-0.3,0.7-0.5,1.1-0.7c0.4-0.2,0.8-0.4,1.2-0.6c-0.1-0.1-0.2-0.3-0.3-0.4C61,17.8,60.8,16.9,61,16c0.1-0.9,0.6-1.6,1.4-2.1
			c1.4-0.8,2.9-0.9,4.4-0.2c1.9,0.9,2.2,3.3,0.7,4.7c-0.7,0.6-1.5,1-2.4,1.5c0.6,0.8,1.2,1.7,1.8,2.6C67.6,21.6,68,20.6,68.1,19.5z
			 M62.9,20.7c-0.6,0.1-1.4,0.5-1.7,0.9c-0.7,0.8-0.7,2.2,0.2,2.8c0.9,0.7,3,0.5,3.8-0.3C64.5,23,63.7,21.8,62.9,20.7z M66.3,16.3
			c0-0.7-0.3-1.1-0.9-1.2c-0.6-0.1-1.3,0-1.7,0.5c-0.4,0.5-0.4,1.2-0.2,1.8c0.4,0.9,0.6,1,1.5,0.6c0.2-0.1,0.4-0.2,0.6-0.4
			C66,17.3,66.3,16.8,66.3,16.3z"/>
		<path class="st0" d="M172.5,18.2c0.1-0.3,0.1-0.7,0.2-1c0-0.1,0.2-0.3,0.3-0.3c0.7,0,1.4,0,2.1,0c-0.2,1-0.4,1.9-0.6,2.8
			c-0.5,2.3-1,4.6-1.5,6.8c-0.3,1.3-0.9,2.4-1.9,3.2c-0.7,0.5-1.5,0.8-2.3,0.9c-1.6,0.2-3.2,0-4.8-0.6c0.2-0.7,0.4-1.3,0.6-1.9
			c0.8,0.2,1.5,0.5,2.3,0.6c0.6,0.1,1.2,0,1.8-0.1c0.7-0.1,1.2-0.5,1.5-1.1c0.6-0.8,0.8-1.8,1-2.7c-0.1,0.1-0.1,0.1-0.2,0.2
			c-0.9,1.2-2.5,1.8-3.9,1.4c-1.2-0.3-1.9-1.2-2.2-2.3c-0.6-2.2-0.2-4.3,1.4-6c1.1-1.2,2.5-1.6,4-1.3c0.8,0.2,1.4,0.6,1.9,1.3
			c0.1,0.1,0.1,0.2,0.1,0.2C172.4,18.2,172.5,18.2,172.5,18.2z M171.7,20.8c0-1.2-0.5-2-1.5-2.2c-0.8-0.1-1.5,0.2-1.9,0.8
			c-0.8,1.1-1.1,2.3-0.9,3.6c0.2,1.3,1.1,1.8,2.4,1.4c0.6-0.2,1-0.6,1.4-1.2C171.5,22.5,171.7,21.7,171.7,20.8z"/>
		<path class="st0" d="M113.3,26.5c0.2-0.8,0.3-1.6,0.5-2.4c0.8-3.8,1.6-7.5,2.4-11.3c0.1-0.3,0.2-0.4,0.5-0.4c0.7,0,1.3,0,2,0
			c-0.4,1.8-0.8,3.5-1.2,5.3c0.4-0.2,0.7-0.5,1-0.6c1.3-0.8,3-0.7,4,0.3c0.9,0.8,1,1.9,0.9,3c-0.3,1.9-0.8,3.9-1.2,5.8
			c0,0.1-0.2,0.3-0.3,0.3c-0.7,0-1.5,0-2.3,0c0.2-0.8,0.3-1.5,0.4-2.2c0.3-1.3,0.5-2.7,0.7-4c0.2-1.6-1.2-2.1-2.4-1.5
			c-0.7,0.4-1.2,1-1.4,1.7c-0.4,1.3-0.6,2.6-0.9,3.9c-0.1,0.6-0.2,1.2-0.4,1.7c0,0.1-0.2,0.3-0.3,0.3
			C114.8,26.5,114.1,26.5,113.3,26.5z"/>
		<path class="st0" d="M200.7,15.8c-0.8-0.2-1.5-0.5-2.3-0.5c-0.6,0-1.3,0.1-1.8,0.3c-0.9,0.4-1.1,1.4-0.4,2.2
			c0.3,0.3,0.7,0.6,1.1,0.8c0.5,0.3,1,0.6,1.4,0.9c2.4,1.6,1.9,5.5-0.6,6.6c-1.6,0.7-3.2,0.8-4.8,0.5c-0.7-0.1-1.4-0.3-2.1-0.5
			c0.2-0.8,0.5-1.5,0.7-2.2c0.6,0.2,1.2,0.5,1.8,0.6c0.9,0.3,1.7,0.3,2.6,0c1.5-0.6,1.8-2.3,0.5-3.3c-0.5-0.4-1.1-0.7-1.7-1
			c-0.8-0.5-1.5-1.1-1.8-2c-0.5-1.9,0.5-3.8,2.5-4.5c1.8-0.6,3.6-0.5,5.3,0.1c0.1,0,0.3,0.2,0.2,0.3
			C201.1,14.7,200.9,15.3,200.7,15.8z"/>
		<path class="st0" d="M175,28.6c0.3,0.1,0.5,0.1,0.6,0.2c0.8,0.1,1.4-0.1,1.9-0.7c0.5-0.6,0.8-1.1,0.6-2c-0.6-3-1-6-1.5-9
			c0,0,0-0.1,0-0.1c0.8,0,1.5,0,2.3,0c0.1,0,0.2,0.2,0.2,0.3c0.2,1.7,0.4,3.4,0.6,5.1c0.1,0.5,0.1,1.1,0.2,1.7
			c0.1-0.2,0.2-0.3,0.3-0.4c1.1-2.1,2.3-4.2,3.4-6.3c0.2-0.3,0.4-0.5,0.8-0.5c0.7,0,1.4,0,2.2,0c-0.1,0.2-0.2,0.4-0.3,0.5
			c-2.1,3.5-4.2,7.1-6.2,10.6c-0.5,0.8-1,1.6-1.8,2.1c-1,0.6-2.6,0.7-3.8,0.2C174.6,29.8,174.8,29.2,175,28.6z"/>
		<path class="st0" d="M163.3,21c0,2.6-1.4,4.6-3.7,5.4c-1.2,0.4-2.4,0.5-3.6,0.1c-1.7-0.5-2.5-1.8-2.7-3.5
			c-0.3-2.9,1.5-5.6,4.4-6.2c1.1-0.2,2.1-0.2,3.2,0.2C162.5,17.7,163.3,19.1,163.3,21z M155.8,22.5c0,0.2,0,0.4,0,0.6
			c0.1,1,0.7,1.7,1.6,1.8c0.9,0.1,1.6-0.2,2.2-0.8c1-1.1,1.3-2.5,1-4c-0.2-0.9-0.8-1.4-1.8-1.4c-0.8,0-1.5,0.3-2,0.9
			C156.1,20.4,155.8,21.4,155.8,22.5z"/>
		<path class="st0" d="M140.7,26.7c-0.6,0-1.5-0.2-2.3-0.7c-1.4-0.9-1.8-2.2-1.8-3.8c0-2.7,1.7-4.9,4.4-5.5c1-0.2,2.1-0.2,3.1,0.1
			c1.5,0.5,2.4,1.7,2.6,3.3c0.2,1.9-0.3,3.6-1.6,4.9C143.9,26.3,142.5,26.7,140.7,26.7z M144,20.9c0-0.2,0-0.4,0-0.6
			c-0.1-0.9-0.5-1.5-1.2-1.7c-0.7-0.2-1.4-0.1-2,0.3c-1.3,0.8-2.1,3.1-1.5,4.7c0.2,0.7,0.7,1.1,1.4,1.2c0.7,0.1,1.4-0.1,1.9-0.6
			C143.7,23.3,144,22.2,144,20.9z"/>
		<path class="st0" d="M210,24.3c-0.1,0.6-0.2,1.1-0.3,1.7c0,0.1-0.1,0.2-0.2,0.3c-1.4,0.4-2.8,0.6-4.3,0.3c-2-0.4-3.1-1.7-3.2-3.8
			c-0.2-2.4,1.3-4.8,3.5-5.7c1.2-0.5,2.4-0.5,3.5-0.2c1.4,0.4,2.3,1.5,2.3,2.9c0,0.8-0.1,1.6-0.1,2.4c0,0.3-0.3,0.3-0.5,0.3
			c-2,0-3.9,0-5.9,0c-0.2,0-0.3,0-0.5,0c-0.2,1.4,0.6,2.3,2,2.4c1.1,0.1,2.1-0.1,3.1-0.5C209.7,24.4,209.8,24.4,210,24.3
			C209.9,24.3,209.9,24.3,210,24.3z M204.7,20.8c1.3,0,2.7,0,4,0c0.1,0,0.2-0.1,0.3-0.2c0.3-0.9-0.3-1.9-1.1-2.1
			C206.4,18.2,205,19.3,204.7,20.8z"/>
		<path class="st0" d="M251.6,24.3c-0.1,0.6-0.2,1.2-0.3,1.8c0,0.1-0.1,0.2-0.2,0.2c-1.8,0.5-3.6,0.8-5.3,0
			c-1.2-0.5-1.8-1.4-2.1-2.7c-0.6-3,1.3-6.1,4.2-6.8c1-0.3,2-0.2,3,0.1c1.3,0.5,2,1.4,2.1,2.8c0.1,0.8-0.1,1.5-0.1,2.3
			c0,0.3-0.2,0.4-0.5,0.4c-1.9,0-3.8,0-5.8,0c-0.2,0-0.4,0-0.5,0c-0.3,1.3,0.6,2.3,2,2.4C249.3,25,250.5,24.8,251.6,24.3z
			 M246.4,20.8c1.4,0,2.7,0,4,0c0.1,0,0.2-0.1,0.2-0.1c0.3-0.7-0.2-1.8-0.9-2C248.3,18.1,246.6,19.2,246.4,20.8z"/>
		<path class="st0" d="M97.2,22.5c-0.1,1.4,0.7,2.3,2.1,2.4c1,0.1,2.1-0.1,3-0.5c0.1-0.1,0.3-0.1,0.5-0.2c-0.1,0.6-0.2,1.2-0.3,1.8
			c0,0.1-0.1,0.2-0.2,0.2c-1.6,0.5-3.2,0.7-4.8,0.2c-1.7-0.5-2.6-1.7-2.7-3.6c-0.2-2.8,1.6-5.4,4.2-6.1c1-0.3,2.1-0.2,3.1,0.2
			c1.2,0.5,1.9,1.4,2,2.7c0.1,0.8-0.1,1.6-0.1,2.4c0,0.3-0.2,0.4-0.5,0.4c-1.9,0-3.8,0-5.8,0C97.5,22.5,97.4,22.5,97.2,22.5z
			 M97.5,20.8c1.4,0,2.7,0,4,0c0.1,0,0.2-0.1,0.2-0.2c0.3-0.9-0.3-1.9-1.2-2.1C99.2,18.3,97.8,19.3,97.5,20.8z"/>
		<path class="st0" d="M127.2,26.5c-0.8,0-1.6,0-2.5,0c0.2-0.7,0.3-1.4,0.4-2.1c0.5-2.4,1-4.8,1.5-7.2c0-0.1,0.1-0.3,0.2-0.3
			c0.7,0,1.5,0,2.2,0c0,0.3-0.1,0.6-0.1,0.8c0.6-0.3,1.1-0.6,1.7-0.9c1.6-0.6,3.3,0.1,3.9,1.5c0.4,0.8,0.3,1.7,0.1,2.5
			c-0.4,1.8-0.7,3.5-1.1,5.3c0,0.1-0.2,0.3-0.3,0.3c-0.7,0-1.4,0-2.2,0c0.1-0.6,0.2-1.2,0.3-1.8c0.3-1.3,0.5-2.6,0.8-3.9
			c0-0.2,0-0.4,0.1-0.6c0.2-1.4-1-1.9-2.2-1.5c-0.6,0.2-1.1,0.7-1.3,1.3c-0.4,1-0.6,2.1-0.9,3.2C127.7,24.3,127.4,25.4,127.2,26.5z"
			/>
		<path class="st0" d="M74.7,26.5c-0.9,0-1.8,0-2.7,0c0.8-3.7,1.6-7.3,2.4-11c-1.2,0-2.4,0-3.7,0c0.1-0.7,0.3-1.3,0.4-1.9
			c0-0.1,0.3-0.2,0.4-0.2c1.7,0,3.5,0,5.2,0c1.3,0,2.6,0,3.9,0c0.2,0,0.3,0,0.5,0c-0.1,0.6-0.2,1.2-0.4,1.8c0,0.1-0.3,0.2-0.4,0.2
			c-1,0-2,0-2.9,0c-0.3,0-0.4,0.1-0.5,0.4C76.2,19.4,75.5,23,74.7,26.5z"/>
		<path class="st0" d="M97.2,13.5c-0.1,0.6-0.3,1.2-0.4,1.8c0,0.2-0.2,0.3-0.4,0.3c-1,0-2,0-3,0c-0.3,0-0.4,0.1-0.5,0.4
			c-0.7,3.4-1.5,6.8-2.2,10.2c-0.1,0.3-0.2,0.4-0.5,0.4c-0.7,0-1.5,0-2.3,0c0.8-3.7,1.6-7.3,2.4-11c-1.2,0-2.4,0-3.7,0
			c0.1-0.7,0.3-1.3,0.4-1.9c0-0.1,0.3-0.2,0.4-0.2c1.7,0,3.4,0,5.2,0c1.3,0,2.6,0,3.9,0C96.8,13.5,97,13.5,97.2,13.5z"/>
		<path class="st0" d="M54.6,13.5c-0.4,1.9-0.8,3.7-1.2,5.5c-0.4,1.8-0.8,3.6-1.2,5.5c1.7,0,3.4,0,5.1,0c-0.1,0.6-0.3,1.2-0.4,1.8
			c0,0.1-0.2,0.2-0.3,0.2c-2.4,0-4.9,0-7.3,0c0,0,0,0-0.1-0.1c0.2-1.1,0.5-2.2,0.7-3.3c0.6-3,1.3-6.1,1.9-9.1
			c0.1-0.4,0.3-0.6,0.7-0.6C53.3,13.5,53.9,13.5,54.6,13.5z"/>
		<path class="st0" d="M223.9,24c0.6-1.1,1.1-2.1,1.7-3.1c0.7-1.2,1.3-2.4,2-3.7c0.1-0.1,0.2-0.3,0.4-0.3c0.8,0,1.5,0,2.4,0
			c0,0.1-0.1,0.2-0.1,0.3c-1.7,3-3.5,6-5.2,8.9c-0.2,0.3-0.4,0.4-0.7,0.4c-0.6,0-1.3,0-1.9,0c-0.2,0-0.4-0.1-0.4-0.3
			c-0.5-3.1-1-6.1-1.6-9.3c0.8,0,1.6,0,2.4,0c0.1,0,0.2,0.2,0.2,0.3c0.3,2.2,0.6,4.3,0.9,6.5C223.8,23.8,223.8,23.8,223.9,24z"/>
		<path class="st0" d="M253.9,24.3c0.8,0.2,1.5,0.5,2.3,0.6c0.4,0.1,0.9,0,1.3-0.2c0.7-0.2,0.8-0.9,0.4-1.5
			c-0.2-0.2-0.5-0.5-0.7-0.6c-0.4-0.3-0.9-0.6-1.3-0.9c-1.6-1.2-1.2-3.4,0.3-4.2c1.1-0.7,2.4-0.8,3.6-0.7c0.6,0.1,1.3,0.2,2,0.3
			c-0.2,0.7-0.3,1.2-0.5,1.9c-0.2-0.1-0.4-0.1-0.6-0.2c-0.8-0.2-1.5-0.3-2.3-0.1c-0.4,0.1-0.7,0.3-0.8,0.7c-0.1,0.4,0.2,0.7,0.5,0.9
			c0.5,0.4,1,0.7,1.6,1.1c2,1.4,1.4,4.2-0.7,5c-0.4,0.1-0.8,0.3-1.3,0.3c-1.2,0.2-2.3,0.1-3.4-0.2c-0.2-0.1-0.4-0.2-0.7-0.3
			C253.6,25.5,253.8,24.9,253.9,24.3z"/>
		<path class="st0" d="M243.6,17.1c-0.2,0.7-0.4,1.3-0.6,1.9c-0.4-0.1-0.8-0.3-1.2-0.3c-1.5-0.3-2.6,0.3-3.3,1.7
			c-0.5,0.9-0.6,1.9-0.4,3c0.3,1.2,1.3,1.8,2.6,1.5c0.5-0.1,0.9-0.2,1.4-0.4c-0.1,0.6-0.2,1.2-0.3,1.8c0,0.1-0.1,0.1-0.2,0.2
			c-1.2,0.5-3.7,0.6-5-0.6c-0.8-0.8-1.2-1.7-1.3-2.8c-0.1-2.1,0.7-4.6,3.1-5.8c1.5-0.7,3-0.7,4.5-0.3C243.3,17,243.4,17,243.6,17.1z
			"/>
		<path class="st0" d="M112.1,24.4c-0.1,0.6-0.2,1.1-0.3,1.7c0,0.1-0.1,0.2-0.2,0.3c-1.6,0.5-3.3,0.6-4.8-0.4
			c-1-0.7-1.4-1.7-1.5-2.9c-0.1-1.5,0.2-2.9,1-4.1c1.3-1.9,3.3-2.5,5.5-2.3c0.5,0.1,1.1,0.2,1.6,0.3c-0.2,0.7-0.4,1.3-0.6,2
			c-0.4-0.1-0.8-0.3-1.1-0.3c-1.7-0.3-3,0.5-3.6,2.1c-0.3,0.8-0.3,1.5-0.2,2.3c0.2,1.3,1.3,2,2.7,1.7
			C111.2,24.7,111.6,24.6,112.1,24.4z"/>
		<path class="st0" d="M147.6,26.5c0.4-2,0.8-4,1.3-6c0.5-2.6,1.1-5.1,1.6-7.7c0.1-0.3,0.1-0.4,0.4-0.4c0.7,0,1.4,0,2.1,0
			c-0.1,0.6-0.2,1.1-0.3,1.6c-0.8,4-1.7,8-2.5,11.9c-0.1,0.4-0.2,0.5-0.7,0.5C148.9,26.5,148.3,26.5,147.6,26.5z"/>
		<path class="st0" d="M220,16.8c-0.2,0.8-0.3,1.6-0.5,2.4c-0.4,0-0.8-0.1-1.1-0.1c-1.2,0.1-2,0.8-2.4,1.9c-0.4,0.9-0.5,2-0.8,2.9
			c-0.2,0.9-0.4,1.8-0.6,2.7c-0.8,0-1.6,0-2.5,0c0.7-3.2,1.3-6.4,2-9.6c0.7,0,1.5,0,2.3,0c-0.1,0.6-0.2,1.1-0.3,1.6
			C217.1,17.3,218.2,16.4,220,16.8z"/>
		<path class="st0" d="M229.9,26.5c0.1-0.7,0.3-1.3,0.4-2c0.5-2.4,1-4.9,1.6-7.3c0-0.1,0.2-0.3,0.3-0.3c0.7,0,1.5,0,2.3,0
			c-0.2,0.9-0.4,1.8-0.6,2.7c-0.5,2.2-0.9,4.4-1.4,6.5c-0.1,0.3-0.2,0.4-0.5,0.4C231.3,26.5,230.6,26.5,229.9,26.5z"/>
		<path class="st0" d="M235.3,12.8c-0.2,0.7-0.3,1.4-0.5,2.1c0,0.1-0.2,0.3-0.3,0.3c-0.7,0-1.4,0-2.2,0c0.2-0.8,0.3-1.5,0.5-2.2
			c0-0.1,0.1-0.1,0.2-0.1C233.8,12.8,234.6,12.8,235.3,12.8z"/>
	</g>
</g>
</svg>
